<svg width="102" height="28" viewBox="0 0 102 28" fill="none" xmlns="http://www.w3.org/2000/svg">
<path fill-rule="evenodd" clip-rule="evenodd" d="M0.984863 25.3455H7.4192L8.95399 21.1941H17.3363L18.8121 25.3455H25.3645L16.3328 2.1427H9.95751L0.984863 25.3455ZM61.8454 25.3455H67.5714V2.1427H61.8454V25.3455ZM60.4879 8.51227H54.7619V17.5546C54.7619 20.5687 52.8729 21.308 51.6333 21.308C49.8033 21.308 48.7998 20.5118 48.7998 18.2939V8.51227H43.0738V18.6351C43.0738 23.0709 44.5496 25.8575 49.5672 25.8575C51.5742 25.8575 53.8174 24.777 54.88 23.0709H54.939V25.3457H60.4879V8.51227ZM42.424 25.3456H25.7773L25.7183 21.0235L34.4548 12.6636H26.4267V8.45525H41.7746V12.6636L33.0381 21.1372H42.424V25.3456ZM13.2032 8.5693H13.1441L10.3697 16.7017H15.8595L13.2032 8.5693Z" fill="#041E42"/>
<path d="M90.5122 3.01466H92.1705V4.27188H90.5122V3.01466Z" fill="#5162AA"/>
<path d="M84.4934 16.4843H89.4683V21.6928H84.4934V16.4843Z" fill="#8C338A"/>
<path d="M87.8101 22.7705H91.0653V24.6863H87.8101V22.7705Z" fill="#5D81C1"/>
<path d="M85.8445 23.6685H89.7753V27.5H85.8445V23.6685Z" fill="#E75027"/>
<path d="M90.7585 20.1967H94.1365V21.6335H90.7585V20.1967Z" fill="#D5292A"/>
<path d="M89.5295 17.562H92.969V18.4601H89.5295V17.562Z" fill="#F6A124"/>
<path d="M94.1365 20.1967H96.5316V20.8552H94.1363L94.1365 20.1967Z" fill="#6A95CD"/>
<path d="M89.5295 13.4313H92.8461V17.5622L89.5295 17.562V13.4313Z" fill="#3370B6"/>
<path d="M83.0182 10.2585H89.4672V16.4248H83.0182V10.2585Z" fill="#74C7DC"/>
<path d="M79.2721 10.2586H83.5714V13.671H79.2721V10.2586Z" fill="#92C144"/>
<path d="M84.8616 4.5113H92.1705V10.3184H84.8616V4.5113Z" fill="#5162AA"/>
<path d="M92.7852 11.0367H98.1286V17.3827H92.7852V11.0367Z" fill="#199BD6"/>
<path d="M91.9855 14.6288H96.5305V20.2564H91.9855V14.6288Z" fill="#F6A124"/>
<path d="M89.5295 18.4601L92.9076 18.4601V21.6929H89.5295V18.4601Z" fill="#D5292A"/>
<path d="M87.5029 20.4358H91.8636V22.7707H87.5029V20.4358Z" fill="#1F9AA7"/>
<path d="M96.531 16.8439H97.4523V19.6576H96.531V16.8439Z" fill="#A5BFDF"/>
<path d="M98.1285 10.857H100.585V12.3537H98.1285V10.857Z" fill="#3FB6AF"/>
<path d="M97.9434 12.2936H99.7245V13.2515H97.9434V12.2936Z" fill="#AF2458"/>
<path d="M89.5295 7.80354H92.8461V13.4909H89.5295V7.80354Z" fill="#7AC19A"/>
<path d="M92.7852 5.52876H97.2687V11.0366L92.7852 11.0367V5.52876Z" fill="#E5DF22"/>
<path d="M92.2319 4.5113H95.4871V9.6599H92.2319V4.5113Z" fill="#34BBD0"/>
<path d="M96.5925 9.54015H101.015V11.0368H96.5925V9.54015Z" fill="#6BA8DB"/>
<path d="M97.2678 6.18719H99.3561V9.53976H97.2678V6.18719Z" fill="#DF5297"/>
<path d="M98.743 7.26492H100.708V8.64187H98.743V7.26492Z" fill="#604696"/>
<path d="M98.2508 8.64178H101.015V10.0187H98.2508V8.64178Z" fill="#F9D805"/>
<path fill-rule="evenodd" clip-rule="evenodd" d="M92.1705 2.95435H90.5122V4.27188H92.1705L92.1705 2.95435ZM87.8711 3.01382H84.8616V6.24666H87.8711V3.01382Z" fill="#5162AA"/>
<path d="M75.5872 3.01466H84.9229V10.3185H75.5872V3.01466Z" fill="#16B9E7"/>
<path d="M80.3771 0.5H83.6323V4.63085H80.3771V0.5Z" fill="#42AD4B"/>
<path d="M73.6216 9.71963H79.6406V11.9946H73.6216V9.71963Z" fill="#E6B722"/>
<path d="M87.8712 0.859403H90.2051V4.51131H87.8712V0.859403Z" fill="#B9CF36"/>
<path d="M91.0027 14.6288H91.924V15.5268H91.0027V14.6288Z" fill="#92C144"/>
</svg>
