<svg width="101" height="28" viewBox="0 0 101 28" fill="none" xmlns="http://www.w3.org/2000/svg">
<path fill-rule="evenodd" clip-rule="evenodd" d="M0 25.5603H6.38072L7.90273 21.3302H16.2152L17.6787 25.5603H24.1765L15.2201 1.91795H8.89788L0 25.5603ZM60.3535 25.5603H66.0317V1.91795H60.3535V25.5603ZM59.0072 8.40819H53.3289V17.6218C53.3289 20.693 51.4557 21.4463 50.2264 21.4463C48.4117 21.4463 47.4165 20.635 47.4165 18.3751V8.40819H41.7383V18.7228C41.7383 23.2426 43.2017 26.082 48.1775 26.082C50.1679 26.082 52.3923 24.981 53.446 23.2426H53.5046V25.5605H59.0072V8.40819ZM41.0938 25.5603H24.5859L24.5273 21.1564L33.1911 12.6382H25.2298V8.35008H40.4499V12.6382L31.7861 21.2723H41.0938V25.5603ZM12.1165 8.46629H12.058L9.30664 16.7527H14.7507L12.1165 8.46629Z" fill="white"/>
<path d="M78.6527 3.05424H74.0673V9.47856H78.2739V10.0647H83.3609V3.05424H82.3905V4.68055H78.6527V3.05424Z" fill="white"/>
<path d="M95.4006 20.1334V19.8841H95.3955V16.6976H95.4006V14.8517H91.0488V17.8269H88.5044V18.3255H91.9932V20.1334H95.4006Z" fill="white"/>
<path d="M96.5257 9.2944H97.1656V8.39952H97.6863V6.9829H98.3401V6.27459H96.5257V9.2944Z" fill="white"/>
<path d="M98.0583 7.33612V8.39941H99.7188V7.33612H98.0583Z" fill="white"/>
<path d="M100.032 8.75453H97.5381V9.81452H100.032V8.75453Z" fill="white"/>
<path d="M79.0233 4.32716H82.0156V2.70086H82.0173L82.0156 0.499985H79.0233V4.32716Z" fill="white"/>
<path d="M86.8795 4.18199H89.2115V2.70438H89.2128L89.2115 0.704718H86.8795V4.18199Z" fill="white"/>
<path d="M89.6399 4.18214H91.1239V3.15942H89.6399V4.18214Z" fill="white"/>
<path d="M95.4022 20.5043H93.273V20.7916H95.4022V20.5043Z" fill="white"/>
<path d="M95.7733 17.0525V19.5291H96.3597V17.0525H95.7733Z" fill="white"/>
<path d="M89.7593 24.6847V23.0964H86.734V23.6412H88.8027V24.6847H89.7593Z" fill="white"/>
<path d="M99.5881 12.126V11.1882H97.4346V12.126H99.5881Z" fill="white"/>
<path d="M92.8995 21.5933V21.1459H92.8961V20.4888H91.6213V18.6792H88.5044V20.3765H90.9658V21.5933H92.8995Z" fill="white"/>
<path d="M90.5963 22.7424V20.7314H86.4572V22.7226H90.1293V22.7424H90.5963Z" fill="white"/>
<path d="M83.7275 3.05424V10.0663H88.126V7.55176H90.9108V4.55507H89.0687V4.55342H86.4586V3.05424H83.7275Z" fill="white"/>
<path d="M72.0312 9.83429V11.8024H77.9V9.83429H72.0312Z" fill="white"/>
<path d="M82.0161 13.5341V10.4218H78.2731V12.1571H77.9185V13.5341H82.0161Z" fill="white"/>
<path d="M84.7231 27.5H88.4333V23.9931H86.548V23.9948H84.7231V27.5Z" fill="white"/>
<path d="M96.7345 17.2691H97.0683V13.4502H96.8313V12.126H97.0683V11.1882H91.9277V14.4969H95.7762V16.6978H96.7345V17.2691Z" fill="white"/>
<path d="M100.034 10.1693H97.17V9.65084H96.1599V9.64919H95.8209V10.8347H100.034V10.1693Z" fill="white"/>
<path d="M98.6515 13.0965V12.479H97.1969V13.0965H98.6515Z" fill="white"/>
<path d="M86.0833 20.3774H88.1261V16.6872H83.3331V21.5959H86.0833V20.3774Z" fill="white"/>
<path d="M95.4511 10.8345V9.29403H96.155V5.59729H94.6468V9.79596H91.9277V10.8345H95.4511Z" fill="white"/>
<path d="M91.2834 7.90756H91.2817V9.43975H94.2688V4.55259H91.2834V7.90756Z" fill="white"/>
<path d="M88.1284 10.4218H82.3876V13.8891H81.8117V16.3327H88.1284V10.4218Z" fill="white"/>
<path d="M90.3548 7.90755H88.4988V10.0671H88.504V13.2834H91.5448V9.79637H90.9117V7.9092L90.3548 7.90755Z" fill="white"/>
<path d="M90.0706 15.4317L90.6795 15.43V14.8489H90.0706V15.4317Z" fill="white"/>
<path d="M91.5452 14.4958V13.6422H88.5044V17.4727H90.6786V15.7853H89.6962V14.4958H91.5452Z" fill="white"/>
</svg>
