<svg width="100" height="28" viewBox="0 0 100 28" fill="none" xmlns="http://www.w3.org/2000/svg">
<path fill-rule="evenodd" clip-rule="evenodd" d="M0.5 25.5605H6.88072L8.40273 21.3304H16.7152L18.1787 25.5605H24.6765L15.7201 1.91809H9.39788L0.5 25.5605ZM60.8535 25.5605H66.5317V1.91809H60.8535V25.5605ZM59.5072 8.40834H53.8289V17.6219C53.8289 20.6931 51.9557 21.4464 50.7264 21.4464C48.9117 21.4464 47.9165 20.6352 47.9165 18.3752V8.40834H42.2383V18.7229C42.2383 23.2428 43.7017 26.0822 48.6775 26.0822C50.6679 26.0822 52.8923 24.9812 53.946 23.2428H54.0046V25.5607H59.5072V8.40834ZM41.5938 25.5605H25.0859L25.0273 21.1565L33.6911 12.6383H25.7298V8.35023H40.9499V12.6383L32.2861 21.2724H41.5938V25.5605ZM12.6165 8.46644H12.558L9.80664 16.7529H15.2507L12.6165 8.46644Z" fill="#13B5EA"/>
<path d="M89.2811 2.80657H90.9256V4.0876H89.2811V2.80657Z" fill="#5162AA"/>
<path d="M83.3125 16.5314H88.246V21.8385H83.3125V16.5314Z" fill="#8C338A"/>
<path d="M86.6016 22.9367H89.8296V24.8887H86.6016V22.9367Z" fill="#5D81C1"/>
<path d="M84.6523 23.8517H88.5504V27.7558H84.6523V23.8517Z" fill="#E75027"/>
<path d="M89.5254 20.3141H92.8753V21.7782H89.5254V20.3141Z" fill="#D5292A"/>
<path d="M88.3066 17.6295H91.7174V18.5446H88.3066V17.6295Z" fill="#F6A124"/>
<path d="M92.8753 20.3141H95.2504V20.9851H92.875L92.8753 20.3141Z" fill="#6A95CD"/>
<path d="M88.3066 13.4206H91.5956V17.6297L88.3066 17.6295V13.4206Z" fill="#3370B6"/>
<path d="M81.8496 10.1876H88.2448V16.4708H81.8496V10.1876Z" fill="#74C7DC"/>
<path d="M78.1347 10.1877H82.3982V13.6648H78.1347V10.1877Z" fill="#92C144"/>
<path d="M83.6777 4.33156H90.9256V10.2487H83.6777V4.33156Z" fill="#5162AA"/>
<path d="M91.5352 10.9806H96.8341V17.4468H91.5352V10.9806Z" fill="#199BD6"/>
<path d="M90.7422 14.6408H95.2493V20.3749H90.7422V14.6408Z" fill="#F6A124"/>
<path d="M88.3066 18.5446L91.6565 18.5446V21.8387H88.3066V18.5446Z" fill="#D5292A"/>
<path d="M86.2969 20.5578H90.6213V22.9368H86.2969V20.5578Z" fill="#1F9AA7"/>
<path d="M95.2498 16.8978H96.1634V19.7648H95.2498V16.8978Z" fill="#A5BFDF"/>
<path d="M96.834 10.7975H99.2703V12.3225H96.834V10.7975Z" fill="#3FB6AF"/>
<path d="M96.6504 12.2613H98.4167V13.2374H96.6504V12.2613Z" fill="#AF2458"/>
<path d="M88.3066 7.68617H91.5956V13.4813H88.3066V7.68617Z" fill="#7AC19A"/>
<path d="M91.5352 5.36829H95.9814V10.9804L91.5352 10.9806V5.36829Z" fill="#E5DF22"/>
<path d="M90.9865 4.33156H94.2146V9.5777H90.9865V4.33156Z" fill="#34BBD0"/>
<path d="M95.3107 9.45568H99.696V10.9807H95.3107V9.45568Z" fill="#6BA8DB"/>
<path d="M95.9805 6.03919H98.0513V9.45528H95.9805V6.03919Z" fill="#DF5297"/>
<path d="M97.4434 7.13734H99.3924V8.54038H97.4434V7.13734Z" fill="#604696"/>
<path d="M96.9552 8.54029H99.696V9.94333H96.9552V8.54029Z" fill="#F9D805"/>
<path fill-rule="evenodd" clip-rule="evenodd" d="M90.9256 2.74511H89.2811V4.0876H90.9256L90.9256 2.74511ZM86.6621 2.8057H83.6777V6.09979H86.6621V2.8057Z" fill="#5162AA"/>
<path d="M74.4805 2.80657H83.7384V10.2488H74.4805V2.80657Z" fill="#16B9E7"/>
<path d="M79.2305 0.244263H82.4585V4.45337H79.2305V0.244263Z" fill="#42AD4B"/>
<path d="M72.5312 9.63856H78.5001V11.9566H72.5312V9.63856Z" fill="#E6B722"/>
<path d="M86.6621 0.610474H88.9766V4.33157H86.6621V0.610474Z" fill="#B9CF36"/>
<path d="M89.7676 14.6408H90.6812V15.5558H89.7676V14.6408Z" fill="#92C144"/>
</svg>
